<?xml version="1.0" encoding="utf-8"?>
<!-- Generator: Adobe Illustrator 23.0.1, SVG Export Plug-In . SVG Version: 6.00 Build 0)  -->
<svg version="1.1" id="Layer_1" xmlns="http://www.w3.org/2000/svg" xmlns:xlink="http://www.w3.org/1999/xlink" x="0px" y="0px"
	 viewBox="0 0 20 20" style="enable-background:new 0 0 20 20;" xml:space="preserve">
<path d="M2.7,6.8H1.8C1.7,6.8,1.5,6.9,1.5,7L1.4,7.6c0,0.1-0.2,0.2-0.3,0.2H0.3C0.1,7.9,0,7.7,0,7.5L1.4,3c0-0.1,0.2-0.2,0.3-0.2
	h1.2C3,2.8,3.1,2.9,3.2,3l1.4,4.5c0.1,0.2-0.1,0.4-0.3,0.4H3.5c-0.1,0-0.3-0.1-0.3-0.2L3,7C3,6.9,2.9,6.8,2.7,6.8z M2.7,5.8l-0.1-2
	H2l-0.2,2H2.7z"/>
<path d="M0.6,12.7c0-0.2,0.1-0.3,0.3-0.3h1.5c1.1,0,1.9,0.3,1.9,1.3c0,0.4-0.3,0.9-0.8,1.1l0,0C4.2,15,4.6,15.4,4.6,16
	c0,1.1-0.9,1.5-2,1.5H0.9c-0.2,0-0.3-0.1-0.3-0.3C0.6,17.2,0.6,12.7,0.6,12.7z M2.4,14.4c0.5,0,0.7-0.3,0.7-0.7s-0.2-0.5-0.7-0.5
	H1.9v1.2H2.4z M2.5,16.8c0.6,0,0.9-0.3,0.9-0.7c0-0.5-0.3-0.7-0.9-0.7H1.9v1.4H2.5z"/>
<path d="M7,5.8c0,0.4,0.3,0.8,0.8,0.8h9.5c0.4,0,0.8-0.3,0.8-0.8S17.7,5,17.3,5H7.8C7.3,5,7,5.3,7,5.8z"/>
<path d="M7,14.8c0,0.4,0.3,0.8,0.8,0.8h9.5c0.4,0,0.8-0.3,0.8-0.8S17.7,14,17.3,14H7.8C7.3,14,7,14.3,7,14.8z"/>
</svg>
